<?xml version="1.0" encoding="UTF-8"?>
<svg width="122px" height="20px" viewBox="0 0 122 20" version="1.1" xmlns="http://www.w3.org/2000/svg" xmlns:xlink="http://www.w3.org/1999/xlink">
    <title>tresata_vector_logo</title>
    <g id="Page-1" stroke="none" stroke-width="1" fill="none" fill-rule="evenodd">
        <g id="tresata_vector_logo" fill="#FFFFFF" fill-rule="nonzero">
            <path d="M34.8116748,15.1149416 C34.8116748,15.4725995 34.7884351,15.745776 34.74384,15.9344714 C34.6979888,16.1250167 34.6395755,16.2582134 34.5648316,16.3352948 C34.491344,16.4129929 34.3814266,16.4826745 34.2363355,16.5431063 C34.0906164,16.6016882 33.9229138,16.6571868 33.7269468,16.7009691 C33.5341202,16.7441346 33.3243349,16.7774338 33.0988472,16.8045664 C32.870847,16.8292326 32.6409625,16.8421821 32.4091938,16.8421821 C31.7917719,16.8421821 31.2560029,16.7644842 30.8012588,16.610938 C30.3477709,16.4580084 29.9715392,16.218131 29.6750762,15.8987056 C29.3779851,15.5761969 29.1575221,15.1747569 29.0174559,14.6882189 C28.8773897,14.203531 28.8064144,13.6269619 28.8064144,12.9622117 L28.8064144,7.4086493 L27.4804962,7.4086493 C27.3247274,7.4086493 27.2047604,7.31491829 27.1224794,7.12252306 C27.0401983,6.93321108 27,6.61316902 27,6.16794672 C27,5.93423584 27.0087933,5.73567409 27.0295206,5.57349478 C27.0515041,5.41254877 27.0816529,5.28428528 27.1224794,5.19178757 C27.1651901,5.09805656 27.2166943,5.03022491 27.27762,4.98952592 C27.3398018,4.94697697 27.4095209,4.92909408 27.4943143,4.92909408 L28.8064144,4.92909408 L28.8064144,2.5099707 C28.8064144,2.42857271 28.829026,2.35765781 28.8767616,2.29105946 C28.9213567,2.22692771 29.0030096,2.17019578 29.1210923,2.12456358 C29.2435718,2.08016468 29.4031091,2.04994876 29.6053571,2.02959927 C29.8057209,2.00924977 30.058845,2 30.3559362,2 C30.6586802,2 30.9111762,2.00924977 31.1165648,2.02959927 C31.3175567,2.04994876 31.477094,2.08016468 31.5920362,2.12456358 C31.7088627,2.17019578 31.7917719,2.22692771 31.8413917,2.29105946 C31.8903835,2.35765781 31.9155075,2.42857271 31.9155075,2.5099707 L31.9155075,4.92909408 L34.3154761,4.92909408 C34.3996414,4.92909408 34.4706167,4.94697697 34.5334267,4.98952592 C34.5956085,5.03022491 34.6458565,5.09805656 34.6873111,5.19178757 C34.7275094,5.28428528 34.7589144,5.41254877 34.7802698,5.57349478 C34.8016252,5.73567409 34.8116748,5.93423584 34.8116748,6.16794672 C34.8116748,6.61316902 34.7714764,6.93321108 34.6873111,7.12252306 C34.60503,7.31491829 34.4831787,7.4086493 34.3286662,7.4086493 L31.9155075,7.4086493 L31.9155075,12.5021897 C31.9155075,13.0929418 32.0109786,13.5363141 32.2000366,13.8316902 C32.3897227,14.1282995 32.7282684,14.2762957 33.2137894,14.2762957 C33.3789796,14.2762957 33.5272111,14.2602629 33.6603682,14.2343635 C33.7910129,14.2059975 33.9097238,14.1720816 34.0114759,14.136316 C34.1144842,14.0999335 34.2043025,14.0678677 34.2721372,14.0370351 C34.3443687,14.010519 34.4078067,13.994486 34.4649638,13.994486 C34.5152118,13.994486 34.5623192,14.010519 34.6069143,14.0370351 C34.6527656,14.0678677 34.6873111,14.1233663 34.7136913,14.2078474 C34.737559,14.293562 34.7589144,14.4082591 34.7802698,14.5556389 C34.8016252,14.6999352 34.8116748,14.8867806 34.8116748,15.1149416" id="Fill-1"></path>
            <path d="M48.0305074,6.66139345 C48.0305074,6.94450355 48.0224156,7.17712268 48.0056096,7.35864975 C47.9888036,7.54017682 47.9632834,7.68263349 47.9327837,7.78421652 C47.8985492,7.88700172 47.8568455,7.95913168 47.8026928,7.99699991 C47.7485402,8.03787355 47.6806938,8.05891146 47.599776,8.05891146 C47.5319296,8.05891146 47.4591036,8.04508655 47.3788083,8.01743673 C47.2978906,7.98798366 47.2076362,7.95913168 47.103688,7.92607211 C47.0016071,7.89782121 46.8908121,7.86596381 46.7663232,7.83831399 C46.6424568,7.81186634 46.5080089,7.79804143 46.3617345,7.79804143 C46.1899399,7.79804143 46.0169004,7.83170208 45.8463507,7.89782121 C45.6751785,7.96574359 45.496537,8.0715342 45.3116711,8.21278871 C45.1286725,8.35223997 44.9350923,8.54458653 44.7365326,8.78081216 C44.5348607,9.01583561 44.3213624,9.30976521 44.0916804,9.65719119 L44.0916804,16.2456621 C44.0916804,16.3226007 44.0674051,16.3923264 44.0194769,16.4518336 C43.9684365,16.5119419 43.8844065,16.5594274 43.7648972,16.5990989 C43.6478777,16.6411747 43.4897769,16.6706278 43.2949518,16.6898624 C43.0970146,16.7090971 42.846792,16.7175123 42.545529,16.7175123 C42.2455109,16.7175123 41.9909312,16.7090971 41.7961062,16.6898624 C41.6019036,16.6706278 41.4438028,16.6411747 41.323671,16.5990989 C41.2078964,16.5594274 41.1238664,16.5119419 41.0746934,16.4518336 C41.0248978,16.3923264 41,16.3226007 41,16.2456621 L41,5.67621839 C41,5.59687544 41.0199183,5.53015522 41.0609996,5.4670415 C41.1020809,5.40873645 41.1761518,5.36004873 41.2819673,5.32097833 C41.3890277,5.28130685 41.5265878,5.25185379 41.692158,5.2302148 C41.8608404,5.21338447 42.0712265,5.20316606 42.3258062,5.20316606 C42.5853654,5.20316606 42.801976,5.21338447 42.9762604,5.2302148 C43.1486775,5.25185379 43.2812581,5.28130685 43.3733798,5.32097833 C43.4667465,5.36004873 43.5339704,5.40873645 43.578164,5.4670415 C43.6155106,5.53015522 43.6372962,5.59687544 43.6372962,5.67621839 L43.6372962,6.99078694 C43.9229981,6.59707757 44.1937613,6.27068949 44.448341,6.01462813 C44.7029207,5.7573646 44.9413168,5.55419854 45.1691314,5.40452887 C45.4006806,5.25425812 45.6291176,5.14906859 45.8569322,5.09076354 C46.0884815,5.02945307 46.3175409,5 46.545978,5 C46.6517935,5 46.7663232,5.007213 46.8908121,5.02043683 C47.0109438,5.02945307 47.1385448,5.05109206 47.2692581,5.07753971 C47.3987265,5.1063917 47.5138787,5.13704693 47.6128473,5.17431408 C47.7130609,5.20797473 47.783397,5.24524187 47.828213,5.28431227 C47.8724066,5.325787 47.9041512,5.36966606 47.9271817,5.41655053 C47.9470999,5.46343501 47.9632834,5.53015522 47.9807119,5.60949818 C47.9975179,5.6936498 48.0087219,5.81807398 48.018681,5.9839729 C48.0267727,6.15167506 48.0305074,6.37407577 48.0305074,6.66139345" id="Fill-2"></path>
            <path d="M59.3263569,9.71631198 C59.3457605,8.8955957 59.1834753,8.24741301 58.8347971,7.77826346 C58.4820031,7.30911391 57.9381122,7.07217566 57.2043005,7.07217566 C56.8321028,7.07217566 56.5104722,7.14544335 56.2364688,7.2848883 C55.9612894,7.42078805 55.7331493,7.61341116 55.5544003,7.84857681 C55.3691834,8.08610592 55.2310057,8.3638141 55.1363393,8.68642827 C55.037557,9.00904245 54.9846378,9.35351875 54.9640582,9.71631198 L59.3263569,9.71631198 Z M62.1551773,10.5571178 C62.1551773,10.9145932 62.0722707,11.1781205 61.9146894,11.3488815 C61.757696,11.5190516 61.5395517,11.6035458 61.2590804,11.6035458 L54.9640582,11.6035458 C54.9640582,12.0466972 55.0175653,12.4478968 55.1239915,12.8100992 C55.2263018,13.1717107 55.393879,13.4783714 55.6249591,13.7288996 C55.8501593,13.9835639 56.1429784,14.1738236 56.5016523,14.3073598 C56.8603263,14.4391235 57.293675,14.5053008 57.7952306,14.5053008 C58.30443,14.5053008 58.7524785,14.4698487 59.139376,14.3942175 C59.5262735,14.320359 59.8620159,14.2405917 60.1418992,14.1490071 C60.4241344,14.0609677 60.6575665,13.978837 60.8421954,13.9049784 C61.0285882,13.830529 61.1808777,13.7956678 61.2937718,13.7956678 C61.3637426,13.7956678 61.4231296,13.8086669 61.4684049,13.8364377 C61.51662,13.8612542 61.5554274,13.9097054 61.5854149,13.978837 C61.6183423,14.0509229 61.635982,14.1490071 61.6483298,14.2766347 C61.6600896,14.4072166 61.6677335,14.5679328 61.6677335,14.7611468 C61.6677335,14.9313169 61.6624416,15.0772614 61.6553857,15.1977986 C61.6471538,15.3177449 61.6348061,15.4217377 61.6195183,15.5062319 C61.6048186,15.5936805 61.579535,15.6639938 61.5518995,15.7207172 C61.520736,15.7803949 61.4795767,15.8365274 61.4266576,15.8914782 C61.3772664,15.9446563 61.2396767,16.0185149 61.0191804,16.1130538 C60.7916282,16.2028658 60.508217,16.2962231 60.1613028,16.3848533 C59.8132127,16.4728927 59.4145554,16.5532508 58.9665069,16.6176555 C58.5172825,16.6867871 58.0392465,16.7175123 57.5288711,16.7175123 C56.6092545,16.7175123 55.8019441,16.601702 55.1116437,16.3688999 C54.4207553,16.1343251 53.8421731,15.7821675 53.3788368,15.3094727 C52.9160886,14.8344145 52.5709384,14.2382282 52.3422103,13.5150053 C52.1123061,12.7941457 52,11.9468404 52,10.9754527 C52,10.0507435 52.11995,9.22116422 52.35985,8.47903344 C52.597986,7.73690267 52.9460761,7.1070369 53.4011805,6.59120874 C53.8598128,6.07360798 54.4119355,5.67890785 55.0669565,5.40947184 C55.7160976,5.13826322 56.4534372,5 57.2742714,5 C58.1392048,5 58.8783084,5.12999106 59.4921701,5.3858371 C60.1066197,5.6405014 60.6105273,5.99738595 61.0050686,6.45235466 C61.400198,6.90495989 61.6900771,7.44383192 61.874706,8.06247119 C62.0581589,8.68642827 62.1551773,9.36001831 62.1551773,10.0903317 L62.1551773,10.5571178 L62.1551773,10.5571178 Z" id="Fill-3"></path>
            <path d="M77.2337938,14.6813796 C76.9925082,15.1310305 76.6526602,15.5062319 76.2180899,15.8105292 C75.7815997,16.1130538 75.2651075,16.3399473 74.6654134,16.4912096 C74.0676393,16.6442446 73.4199441,16.7175123 72.7229676,16.7175123 C72.3024777,16.7175123 71.9011883,16.6897414 71.5165392,16.6318363 C71.1350903,16.5727495 70.7926822,16.4977092 70.488675,16.4084881 C70.1865879,16.3204487 69.936342,16.2288641 69.7340973,16.1343251 C69.5299325,16.0421496 69.384009,15.9529285 69.2924869,15.874343 C69.1990447,15.793394 69.128643,15.6639938 69.0736017,15.4885059 C69.0275206,15.3136088 69,15.0559902 69,14.7156499 C69,14.4875747 69.0089602,14.3097233 69.0275206,14.1726418 C69.044161,14.0355604 69.0665615,13.9280223 69.1024024,13.8476642 C69.1350432,13.7661243 69.1785642,13.7111736 69.2278453,13.6834028 C69.2803266,13.6579954 69.341128,13.642042 69.4179298,13.642042 C69.510092,13.642042 69.6476952,13.6910841 69.8249794,13.7868047 C70.0086637,13.8860706 70.2352291,13.992427 70.5014753,14.1111915 C70.7690016,14.22582 71.0864491,14.3345398 71.4429375,14.4349874 C71.7975058,14.5366168 72.2051954,14.5862498 72.6602462,14.5862498 C72.9450529,14.5862498 73.2004189,14.5578881 73.4212241,14.5053008 C73.6452294,14.4497591 73.840434,14.3723554 74.0042778,14.2713169 C74.1674817,14.1726418 74.2916446,14.0420599 74.3729265,13.8884341 C74.4586885,13.7348083 74.5041296,13.5540026 74.5041296,13.3519256 C74.5041296,13.1179417 74.4254077,12.9194099 74.267964,12.7521941 C74.1105203,12.58616 73.9050755,12.4396247 73.6503495,12.3143606 C73.3924234,12.1914599 73.1012165,12.0726954 72.7780089,11.9645664 C72.4554413,11.8570284 72.1239135,11.737673 71.7840655,11.6035458 C71.4429375,11.4735548 71.1114097,11.3222924 70.786282,11.1503497 C70.4637144,10.9789979 70.1725076,10.771603 69.9152215,10.5198931 C69.6598555,10.2723192 69.4524906,9.97333976 69.296327,9.6241365 C69.1414433,9.27611499 69.0652815,8.85718925 69.0652815,8.36617757 C69.0652815,7.86984807 69.1676839,7.41192502 69.381449,6.99772624 C69.5900939,6.58411832 69.894101,6.22782465 70.2864303,5.93179955 C70.6838796,5.63695619 71.165171,5.40947184 71.7315843,5.24521041 C72.3011977,5.08213072 72.9354526,5 73.6413893,5 C73.9965976,5 74.3390057,5.02304387 74.6718135,5.06972248 C75.0052614,5.11581022 75.3041484,5.17548793 75.5742348,5.24521041 C75.8449611,5.31552376 76.0689664,5.38938231 76.2564908,5.4721039 C76.4388951,5.55364374 76.5713783,5.62395709 76.6513801,5.6818622 C76.728822,5.74094904 76.7889834,5.79649068 76.8241842,5.85794099 C76.856825,5.91525523 76.8792255,5.98379597 76.899066,6.06651756 C76.9137863,6.14864827 76.9304267,6.24909591 76.942587,6.37022394 C76.9553873,6.49076111 76.9592274,6.64025082 76.9592274,6.81810223 C76.9592274,7.02667879 76.9553873,7.19743977 76.942587,7.33156691 C76.9304267,7.46273971 76.9105862,7.56673256 76.8792255,7.64531806 C76.8517049,7.7233127 76.8088238,7.77353651 76.7614627,7.80307994 C76.7102615,7.82907815 76.6513801,7.84325899 76.5828985,7.84325899 C76.5067367,7.84325899 76.388974,7.80307994 76.2302502,7.72035835 C76.0689664,7.63881851 75.8718418,7.55196084 75.6318361,7.45742189 C75.3918305,7.36465555 75.115344,7.27779788 74.7991765,7.19625804 C74.4830091,7.11353645 74.1252407,7.07217566 73.7201111,7.07217566 C73.4314643,7.07217566 73.1850585,7.10112822 72.9738535,7.15548811 C72.7652086,7.20925714 72.5917646,7.28666091 72.4586414,7.38829028 C72.3216782,7.49051053 72.2224759,7.60809335 72.1552743,7.74517483 C72.0887127,7.87989283 72.0554319,8.02760995 72.0554319,8.18123575 C72.0554319,8.42053747 72.1354338,8.62261448 72.2928775,8.78569417 C72.4528813,8.94759213 72.6628062,9.0923549 72.9252124,9.21525553 C73.1850585,9.34051965 73.4813855,9.45928421 73.8154734,9.568004 C74.1463612,9.67554206 74.4830091,9.79312488 74.8228571,9.92370681 C75.1652651,10.0477892 75.5012731,10.2002332 75.8328009,10.3686308 C76.1643287,10.5423461 76.4600156,10.7509226 76.7217818,10.9996783 C76.9829079,11.247843 77.1941129,11.5438681 77.3528367,11.8907079 C77.5115604,12.2363659 77.5928423,12.6470195 77.5928423,13.1179417 C77.5928423,13.7099918 77.4718795,14.2270017 77.2337938,14.6813796 Z" id="Fill-4"></path>
            <path d="M90.0753802,11.6407705 L88.8821406,11.6407705 C88.3733705,11.6407705 87.942338,11.6738592 87.5871469,11.7453542 C87.2275318,11.813895 86.936174,11.9190696 86.7118096,12.0585145 C86.4880771,12.1985503 86.3243859,12.3675387 86.2219999,12.5672523 C86.1170858,12.7646023 86.0658928,12.9909049 86.0658928,13.2461601 C86.0658928,13.6816302 86.2144157,14.023743 86.5057735,14.2713169 C86.8021874,14.5188908 87.2117315,14.6447457 87.7350378,14.6447457 C88.1780786,14.6447457 88.5794066,14.5407529 88.9497659,14.3321763 C89.3188612,14.1194637 89.6942767,13.8139847 90.0753802,13.4092398 L90.0753802,11.6407705 Z M93.1551773,16.0888282 C93.1551773,16.1969572 93.1122004,16.2814513 93.0281428,16.3440834 C92.9478772,16.4061246 92.8145225,16.4516215 92.635663,16.4782105 C92.4593315,16.5071631 92.1964143,16.5183896 91.8456473,16.5183896 C91.4714959,16.5183896 91.1990985,16.5071631 91.0309832,16.4782105 C90.8578117,16.4516215 90.7396254,16.4061246 90.668208,16.3440834 C90.5999506,16.2814513 90.5620299,16.1969572 90.5620299,16.0888282 L90.5620299,15.2598398 C90.1063488,15.7207172 89.5855705,16.0781926 89.0003269,16.3334478 C88.4125553,16.5904755 87.7634784,16.7175123 87.0512003,16.7175123 C86.4609006,16.7175123 85.9167378,16.6448354 85.423136,16.5036179 C84.9282702,16.3588551 84.5010297,16.1443699 84.1420466,15.8619347 C83.7786394,15.577727 83.4986579,15.2261603 83.300838,14.8084163 C83.101122,14.3865362 83,13.8984789 83,13.3401082 C83,12.7356498 83.1270345,12.2085951 83.3798395,11.7624894 C83.6332765,11.3146111 84.011852,10.9476818 84.513038,10.6557928 C85.016752,10.3639038 85.6430764,10.1482368 86.3882191,10.0105645 C87.137786,9.86816517 88.0042752,9.80080617 88.9914788,9.80080617 L90.0753802,9.80080617 L90.0753802,9.17034953 C90.0753802,8.84537188 90.0412516,8.55761895 89.9704662,8.31536288 C89.9015768,8.06897074 89.7827584,7.86571199 89.6209632,7.7026323 C89.4610641,7.54073434 89.2449158,7.41901544 88.9744144,7.34338428 C88.7039131,7.26538965 88.3695784,7.22580146 87.9720425,7.22580146 C87.4474721,7.22580146 86.9810469,7.28075223 86.5696067,7.38829028 C86.1587986,7.49701008 85.7960234,7.61636551 85.4787531,7.75049264 C85.1640109,7.88284718 84.9010937,8.00161174 84.6887375,8.1109224 C84.4763813,8.21905133 84.3044738,8.27400209 84.1698552,8.27400209 C84.0801094,8.27400209 83.9985798,8.24741301 83.9296904,8.19187138 C83.860169,8.13810235 83.8007599,8.06010771 83.7527269,7.95847834 C83.708486,7.8580307 83.6749894,7.73394833 83.6465488,7.58859469 C83.6244284,7.4385141 83.6124201,7.27543441 83.6124201,7.09699214 C83.6124201,6.85591781 83.6307485,6.66624904 83.6749894,6.52680408 C83.7160702,6.38676826 83.7938077,6.26150415 83.909466,6.14864827 C84.0270203,6.03520153 84.2305284,5.91230089 84.5206221,5.77403767 C84.8132439,5.6405014 85.1513706,5.51228295 85.5400583,5.39765447 C85.9338021,5.27948078 86.3572505,5.18612357 86.8179877,5.10990154 C87.2806208,5.03899732 87.7558943,5 88.245072,5 C89.1191453,5 89.8642881,5.08213072 90.4805003,5.23871086 C91.1011366,5.39942708 91.6073786,5.64227401 92.0061785,5.97316034 C92.4087705,6.3016832 92.6976002,6.72829022 92.8815159,7.24825446 C93.0629035,7.7682187 93.1551773,8.3862671 93.1551773,9.09885445 L93.1551773,16.0888282 L93.1551773,16.0888282 Z" id="Fill-5"></path>
            <path d="M105.811675,15.1166483 C105.811675,15.4743358 105.787175,15.7469184 105.745714,15.9356293 C105.695458,16.1268072 105.637663,16.2593983 105.564164,16.3377195 C105.488151,16.4166574 105.381357,16.483878 105.234987,16.5436982 C105.0905,16.6059851 104.923399,16.6577882 104.728657,16.7028075 C104.534543,16.7459766 104.323468,16.7811286 104.095431,16.8039467 C103.869907,16.8298482 103.641242,16.8421821 103.408179,16.8421821 C102.791286,16.8421821 102.253546,16.7644776 101.801242,16.6115355 C101.343284,16.4598266 100.968876,16.220546 100.671109,15.8998605 C100.37397,15.5791752 100.155985,15.177085 100.018409,14.68989 C99.875807,14.2045451 99.806077,13.6297781 99.806077,12.9631226 L99.806077,7.41033217 L98.4805734,7.41033217 C98.3247797,7.41033217 98.2022806,7.31474327 98.1224991,7.12418215 C98.0389484,6.93238764 98,6.61355238 98,6.16952648 C98,5.93517948 98.0087948,5.73598453 98.028269,5.57317504 C98.0489996,5.41283236 98.0797814,5.28455821 98.1224991,5.19205281 C98.1633321,5.09769731 98.216101,5.03109343 98.2770364,4.99039105 C98.3386001,4.94845528 98.4120996,4.92933749 98.4931375,4.92933749 L99.806077,4.92933749 L99.806077,2.51062978 C99.806077,2.42984173 99.826807,2.35707082 99.874551,2.29231705 C99.920409,2.22632987 100.002075,2.17144333 100.12269,2.12580734 C100.242676,2.08078805 100.402239,2.05118632 100.605776,2.02960173 C100.807429,2.00986724 101.057452,2 101.354591,2 C101.659897,2 101.91369,2.00986724 102.115342,2.02960173 C102.318879,2.05118632 102.477186,2.08078805 102.590262,2.12580734 C102.706479,2.17144333 102.791286,2.22632987 102.841542,2.29231705 C102.890542,2.35707082 102.913785,2.42984173 102.913785,2.51062978 L102.913785,4.92933749 L105.316025,4.92933749 C105.399575,4.92933749 105.470562,4.94845528 105.530869,4.99039105 C105.593689,5.03109343 105.646458,5.09769731 105.687919,5.19205281 C105.730009,5.28455821 105.760162,5.41283236 105.781521,5.57317504 C105.799739,5.73598453 105.811675,5.93517948 105.811675,6.16952648 C105.811675,6.61355238 105.770214,6.93238764 105.687919,7.12418215 C105.603112,7.31474327 105.485639,7.41033217 105.326076,7.41033217 L102.913785,7.41033217 L102.913785,12.5024457 C102.913785,13.0938636 103.008644,13.5385063 103.197104,13.8326734 C103.386192,14.1286906 103.726049,14.2773159 104.212904,14.2773159 C104.380006,14.2773159 104.527005,14.2631317 104.658298,14.2347634 C104.793362,14.2063951 104.908951,14.1737099 105.013232,14.1367077 C105.113744,14.1015557 105.20232,14.0688704 105.270794,14.0392688 C105.341781,14.0109005 105.407114,13.9960996 105.466164,13.9960996 C105.513908,13.9960996 105.561651,14.0109005 105.606881,14.0392688 C105.653368,14.0688704 105.687919,14.1243738 105.711163,14.2100953 C105.736919,14.2958171 105.760162,14.4105237 105.781521,14.5566823 C105.799739,14.7028408 105.811675,14.8884682 105.811675,15.1166483" id="Fill-6"></path>
            <path d="M118.075877,11.6407705 L116.87918,11.6407705 C116.374708,11.6407705 115.94104,11.6738592 115.581967,11.7453542 C115.228584,11.813895 114.937154,11.9190696 114.712734,12.0585145 C114.488945,12.1985503 114.323317,12.3675387 114.220905,12.5672523 C114.114701,12.7646023 114.064127,12.9909049 114.064127,13.2461601 C114.064127,13.6816302 114.212687,14.023743 114.506646,14.2713169 C114.801237,14.5188908 115.210251,14.6447457 115.734952,14.6447457 C116.17431,14.6447457 116.58206,14.5407529 116.948718,14.3321763 C117.317906,14.1194637 117.695311,13.8139847 118.075877,13.4092398 L118.075877,11.6407705 Z M121.155177,16.0888282 C121.155177,16.1969572 121.114718,16.2814513 121.031904,16.3440834 C120.945297,16.4061246 120.81823,16.4516215 120.638062,16.4782105 C120.460422,16.5071631 120.194911,16.5183896 119.846585,16.5183896 C119.473605,16.5183896 119.200508,16.5071631 119.02919,16.4782105 C118.861032,16.4516215 118.739024,16.4061246 118.670749,16.3440834 C118.596785,16.2814513 118.563913,16.1969572 118.563913,16.0888282 L118.563913,15.2598398 C118.105589,15.7207172 117.585946,16.0781926 117.000556,16.3334478 C116.412638,16.5904755 115.7634,16.7175123 115.04968,16.7175123 C114.456705,16.7175123 113.917464,16.6448354 113.42121,16.5036179 C112.926221,16.3588551 112.500139,16.1443699 112.13917,15.8619347 C111.777569,15.577727 111.496253,15.2261603 111.298384,14.8084163 C111.098618,14.3865362 111,13.8984789 111,13.3401082 C111,12.7356498 111.124537,12.2085951 111.378669,11.7624894 C111.633434,11.3146111 112.008311,10.9476818 112.51215,10.6557928 C113.014725,10.3639038 113.640573,10.1482368 114.387798,10.0105645 C115.136287,9.86816517 116.002992,9.80080617 116.99297,9.80080617 L118.075877,9.80080617 L118.075877,9.17034953 C118.075877,8.84537188 118.041108,8.55761895 117.968409,8.31536288 C117.899502,8.06897074 117.784447,7.86571199 117.622612,7.7026323 C117.46204,7.54073434 117.246471,7.41901544 116.974637,7.34338428 C116.705333,7.26538965 116.368387,7.22580146 115.972016,7.22580146 C115.446051,7.22580146 114.982038,7.28075223 114.569231,7.38829028 C114.158321,7.49701008 113.794191,7.61636551 113.478106,7.75049264 C113.162021,7.88284718 112.900302,8.00161174 112.689158,8.1109224 C112.47422,8.21905133 112.303534,8.27400209 112.170146,8.27400209 C112.079114,8.27400209 111.997564,8.24741301 111.926761,8.19187138 C111.85659,8.13810235 111.79843,8.06010771 111.752914,7.95847834 C111.706133,7.8580307 111.671364,7.73394833 111.645445,7.58859469 C111.620791,7.4385141 111.610044,7.27543441 111.610044,7.09699214 C111.610044,6.85591781 111.629641,6.66624904 111.671364,6.52680408 C111.71372,6.38676826 111.792741,6.26150415 111.905899,6.14864827 C112.024747,6.03520153 112.228306,5.91230089 112.521,5.77403767 C112.809902,5.6405014 113.150642,5.51228295 113.541955,5.39765447 C113.930739,5.27948078 114.358086,5.18612357 114.818938,5.10990154 C115.277893,5.03899732 115.75455,5 116.245113,5 C117.117508,5 117.862204,5.08213072 118.482363,5.23871086 C119.09936,5.39942708 119.609522,5.64227401 120.009685,5.97316034 C120.40732,6.3016832 120.697486,6.72829022 120.88208,7.24825446 C121.06288,7.7682187 121.155177,8.3862671 121.155177,9.09885445 L121.155177,16.0888282 L121.155177,16.0888282 Z" id="Fill-7"></path>
            <g id="logo/group">
                <g id="Group-4" transform="translate(1.361067, 2.523984)">
                    <path d="M10.5814212,1.63605494 C10.564695,1.67309147 10.53184,1.70475173 10.490622,1.72685417 C10.464338,1.74298298 10.464338,1.74298298 10.464338,1.74298298 C10.3980306,1.76687752 10.3538257,1.82123759 10.3663704,1.86365038 C10.378915,1.90606318 10.4505986,1.92278936 10.5258664,1.90128428 C10.6017315,1.87918183 10.6817782,1.92577617 10.704478,2.00462814 L10.8532215,2.51537382 C10.8759213,2.59422579 10.9470076,2.64320958 11.0121202,2.62409395 C11.0766354,2.60557569 11.1100878,2.525529 11.0867906,2.44667703 L10.8299243,1.57691597 C10.8066272,1.49866137 10.7445014,1.44669075 10.6925308,1.4622222 C10.6405602,1.47715628 10.5999394,1.50164818 10.6029263,1.51658227 C10.6029263,1.51658227 10.6029263,1.51658227 10.604121,1.53868471 C10.604121,1.57691597 10.59755,1.60797886 10.5814212,1.63605494" id="Fill-8"></path>
                    <path d="M10.1196593,0.722088984 C10.0222891,0.369644596 10.0724676,0.0488604662 10.2307689,0.00465557682 C10.3872781,-0.0377572224 10.5933685,0.21433012 10.6877519,0.568566598 C10.7845247,0.920413623 10.7343462,1.24298984 10.5766423,1.28420792 C10.418341,1.32781544 10.2152374,1.0757281 10.1196593,0.722088984" id="Fill-9"></path>
                    <path d="M11.1542927,0.858287833 C11.3460463,0.544672063 11.6160545,0.363073599 11.7534481,0.447899197 C11.8932311,0.533919523 11.8484289,0.855898379 11.6584673,1.16712469 C11.465519,1.47894837 11.1961081,1.66413102 11.0581172,1.57691597 C10.9195289,1.49209037 10.9607469,1.16831942 11.1542927,0.858287833" id="Fill-10"></path>
                    <path d="M9.51034866,1.66532575 C9.20330389,1.46759847 9.02349751,1.19520077 9.11310202,1.05661247 C9.20270652,0.920413623 9.52349065,0.968800056 9.82874334,1.16712469 C10.1381776,1.36544933 10.3155945,1.63844439 10.2271847,1.77524061 C10.1387749,1.91263418 9.8179908,1.86365038 9.51034866,1.66532575" id="Fill-11"></path>
                    <path d="M8.62864033,3.49445238 C8.61729042,3.53686518 8.59518798,3.5756938 8.55934618,3.60854879 C8.53843846,3.63005387 8.53843846,3.63005387 8.53843846,3.63005387 C8.48168894,3.66947985 8.45361286,3.73339773 8.47631267,3.77103162 C8.49960984,3.80926288 8.57248817,3.80687343 8.6387955,3.76685008 C8.70510284,3.72622937 8.79410998,3.75012391 8.83652278,3.82061278 L9.11310202,4.2769984 C9.15551482,4.34688991 9.2373536,4.37616072 9.29529785,4.34151364 C9.35264473,4.30746393 9.36518936,4.22144361 9.3221792,4.15155209 L8.8508595,3.37557707 C8.8084467,3.3050882 8.73556837,3.27044112 8.68957139,3.2985172 C8.64297705,3.32659328 8.61012206,3.36064299 8.61549833,3.37438235 C8.61549833,3.37438235 8.61549833,3.37438235 8.6208746,3.39648479 C8.63043242,3.43292396 8.63162714,3.46577894 8.62864033,3.49445238" id="Fill-12"></path>
                    <path d="M7.94525663,2.73161936 C7.76126871,2.41441941 7.72781636,2.09184319 7.86759939,2.00821232 C8.00977187,1.92756826 8.27201439,2.11872454 8.45480759,2.43472977 C8.63939287,2.75133235 8.67165049,3.07450594 8.53246482,3.15813681 C8.39029234,3.23937823 8.1268551,3.04762458 7.94525663,2.73161936" id="Fill-13"></path>
                    <path d="M8.97988999,2.59780997 C9.08681803,2.2465603 9.29888203,2.00104396 9.45479387,2.0476383 C9.61070571,2.09483001 9.65252114,2.41800359 9.54499574,2.76805853 C9.44045715,3.11811346 9.22779579,3.36482453 9.07128658,3.3164381 C8.91418002,3.27044112 8.87415667,2.94846226 8.97988999,2.59780997" id="Fill-14"></path>
                    <path d="M7.59699379,3.79791298 C7.24753621,3.6850113 7.00859087,3.4681684 7.05637994,3.31225656 C7.10775319,3.15694208 7.42973204,3.12289237 7.77918961,3.23579405 C8.12804982,3.34869572 8.36938462,3.56673335 8.31621928,3.72204783 C8.26902758,3.8773623 7.94585399,3.91081465 7.59699379,3.79791298" id="Fill-15"></path>
                    <path d="M13.0222479,1.78659051 C12.9828219,1.77404588 12.9445907,1.74716453 12.9159172,1.70893327 C12.897399,1.6856361 12.897399,1.6856361 12.897399,1.6856361 C12.8633493,1.6253024 12.8030156,1.59125269 12.7629922,1.61036832 C12.7229689,1.62948394 12.7175926,1.70236227 12.7510449,1.77285115 C12.7850947,1.84334003 12.7516423,1.92995772 12.6775692,1.96579952 L12.1978865,2.19638178 C12.1244108,2.23222358 12.0873742,2.31047819 12.1160477,2.37081189 C12.1447211,2.43054822 12.2289494,2.45085858 12.3030224,2.41501677 L13.1214102,2.02075695 C13.1954833,1.98491515 13.236104,1.91621836 13.2122095,1.86723456 C13.1889123,1.81884813 13.157252,1.78300633 13.1423179,1.78778524 C13.1423179,1.78778524 13.1423179,1.78778524 13.1214102,1.79077205 C13.083179,1.79794041 13.0515187,1.79614832 13.0222479,1.78659051" id="Fill-16"></path>
                    <path d="M13.8484015,1.17966933 C14.1811329,1.02734167 14.5043064,1.02435485 14.5718085,1.17309833 C14.6411026,1.32184181 14.4248571,1.56556606 14.0951125,1.71729636 C13.7611864,1.86902665 13.4356234,1.8732082 13.3681213,1.72386736 C13.2994245,1.5763186 13.5144753,1.33199699 13.8484015,1.17966933" id="Fill-17"></path>
                    <path d="M13.8824512,2.2238605 C14.2217536,2.36185143 14.4475569,2.59780997 14.3842364,2.74774817 C14.3233053,2.90007583 13.9983397,2.91082837 13.6584399,2.77164271 C13.3203322,2.63185968 13.096321,2.39769324 13.157252,2.2465603 C13.2199752,2.09483001 13.5425514,2.08467483 13.8824512,2.2238605" id="Fill-18"></path>
                    <path d="M12.8191444,0.733438888 C12.964901,0.397123311 13.2050411,0.177293591 13.3537846,0.241211471 C13.5031254,0.307518805 13.5067096,0.631289752 13.3603556,0.968202693 C13.2151963,1.30332354 12.978043,1.52375063 12.8287022,1.45923538 C12.6781666,1.39412278 12.6763745,1.06855974 12.8191444,0.733438888" id="Fill-19"></path>
                    <path d="M6.28757328,1.79734305 C6.25651038,1.82482177 6.21469495,1.84095058 6.16690588,1.84572948 C6.13644035,1.84991103 6.13644035,1.84991103 6.13644035,1.84991103 C6.06595147,1.84572948 6.00382568,1.87858447 5.99844941,1.92278936 C5.99307314,1.96639688 6.05221211,2.01000441 6.12986935,2.01896486 C6.20692922,2.02732795 6.26248402,2.10140101 6.2529262,2.18264242 L6.19139778,2.7131011 C6.18183996,2.79493988 6.22903167,2.86781821 6.295339,2.87558393 C6.3622437,2.88334966 6.42436949,2.82301596 6.4339273,2.74117717 L6.53906326,1.84095058 C6.54862107,1.75911179 6.51158454,1.68742819 6.45782184,1.68145456 C6.40346177,1.67548092 6.35686743,1.68205192 6.35447798,1.69579128 C6.35447798,1.69579128 6.35447798,1.69579128 6.3443228,1.716699 C6.32938871,1.75134607 6.31206518,1.7770327 6.28757328,1.79734305" id="Fill-20"></path>
                    <path d="M6.21887649,0.776449051 C6.26905501,0.412057395 6.43930357,0.136075518 6.6035785,0.158775326 C6.76486661,0.182072498 6.85327639,0.493298814 6.80309787,0.855898379 C6.75291934,1.21969267 6.58267078,1.49388246 6.41959058,1.47237738 C6.25830247,1.4508723 6.1681006,1.13904862 6.21887649,0.776449051" id="Fill-21"></path>
                    <path d="M7.11850573,1.305713 C7.41778478,1.09424636 7.73737418,1.03092585 7.83056286,1.16413788 C7.92315419,1.29675255 7.7582819,1.57691597 7.45900285,1.78778524 C7.16211325,1.99984923 6.84252385,2.06316975 6.74754307,1.92936036 C6.65435439,1.79734305 6.81803195,1.51658227 7.11850573,1.305713" id="Fill-22"></path>
                    <path d="M5.287587,1.40368059 C5.08269136,1.10081736 5.02713657,0.781227958 5.16214069,0.689831362 C5.29714481,0.598434767 5.57372405,0.768085964 5.77921705,1.07094919 C5.98411269,1.37500715 6.04086221,1.69459655 5.90585809,1.78659051 C5.77384078,1.87858447 5.49546945,1.70714118 5.287587,1.40368059" id="Fill-23"></path>
                    <path d="M3.92141697,2.03389894 C3.93754578,2.07451965 3.93874051,2.11872454 3.92679324,2.16531889 C3.91902752,2.19697914 3.91902752,2.19697914 3.91902752,2.19697914 C3.8915488,2.2597023 3.90110662,2.32780172 3.94112996,2.34811208 C3.98055594,2.36842243 4.04208437,2.32780172 4.07732881,2.25791021 C4.11257325,2.18801869 4.20158039,2.16053998 4.27505609,2.19757651 L4.74995996,2.43771658 C4.8228383,2.47475311 4.90766389,2.45623485 4.93812943,2.39649851 C4.96859496,2.33616481 4.93335052,2.25731285 4.85987482,2.22027632 L4.04925273,1.81347186 C3.97577704,1.77643533 3.89573035,1.78599315 3.87183581,1.83497694 C3.84734391,1.88336338 3.83718874,1.92995772 3.849136,1.93891817 C3.849136,1.93891817 3.849136,1.93891817 3.86526481,1.95385225 C3.89274353,1.97953888 3.91245652,2.00582287 3.92141697,2.03389894" id="Fill-24"></path>
                    <path d="M2.93875423,1.75134607 C2.61558064,1.57870806 2.41606128,1.32303653 2.49013434,1.17907196 C2.56779157,1.03391266 2.89096516,1.05661247 3.21413874,1.22805576 C3.53910441,1.39949905 3.73922114,1.6545732 3.6615639,1.79913514 C3.58629612,1.94250235 3.26192781,1.92099727 2.93875423,1.75134607" id="Fill-25"></path>
                    <path d="M3.74519478,1.08648064 C3.64842191,0.732841525 3.69740571,0.411460032 3.85331755,0.369644596 C4.01161884,0.325439707 4.21830657,0.577527049 4.31448207,0.929971437 C4.40946284,1.28301319 4.36346586,1.60319996 4.20396984,1.64740484 C4.04686328,1.68981764 3.84316237,1.43892503 3.74519478,1.08648064" id="Fill-26"></path>
                    <path d="M3.21055456,2.83795004 C2.85452599,2.92695718 2.53613132,2.87140239 2.49790006,2.71250373 C2.45548726,2.5547998 2.71295087,2.35289098 3.06658999,2.26507857 C3.42202119,2.17547406 3.74220796,2.23102886 3.78163394,2.38933015 C3.82046256,2.54763144 3.5653884,2.74954026 3.21055456,2.83795004" id="Fill-27"></path>
                    <path d="M5.27802918,4.40005525 C5.31387099,4.42275506 5.34612861,4.45680477 5.36106269,4.50160703 C5.37300996,4.52848838 5.37300996,4.52848838 5.37300996,4.52848838 C5.39212559,4.59718517 5.44349884,4.64616896 5.486509,4.63780587 C5.53011653,4.62944279 5.55281633,4.56014864 5.53788225,4.48308876 C5.52294817,4.40662625 5.57671087,4.3307611 5.65735492,4.31522965 L6.17945051,4.21367788 C6.26009456,4.19814643 6.31564936,4.1318391 6.30310473,4.06612913 C6.2905601,4.00101652 6.21409758,3.96039581 6.13345353,3.97592726 L5.24577156,4.14916264 C5.16512751,4.16469409 5.10718326,4.22084624 5.11674107,4.27460895 C5.12629889,4.32777429 5.14660924,4.37018708 5.16214069,4.36899236 C5.16214069,4.36899236 5.16214069,4.36899236 5.18424313,4.37138181 C5.22127966,4.37556336 5.25293992,4.38452381 5.27802918,4.40005525" id="Fill-28"></path>
                    <path d="M4.32642934,4.77699154 C3.96621922,4.83911733 3.65200609,4.76026537 3.62333265,4.59897726 C3.59406184,4.43948124 3.86526481,4.25728541 4.22487756,4.19575698 C4.58747713,4.1318391 4.90228762,4.21188579 4.92976634,4.37377127 C4.95724505,4.53326728 4.68723681,4.71546311 4.32642934,4.77699154" id="Fill-29"></path>
                    <path d="M4.55760896,3.75908436 C4.26729036,3.53746255 4.10898907,3.25490967 4.20695666,3.1240871 C4.30432689,2.99386188 4.6221242,3.06554548 4.91483225,3.28597257 C5.20634558,3.50759438 5.36345215,3.79253671 5.26369246,3.92276192 C5.16572487,4.05238977 4.84912228,3.97891408 4.55760896,3.75908436" id="Fill-30"></path>
                    <path d="M5.20694294,5.4723225 C4.98113959,5.75905692 4.69440517,5.91198194 4.56597205,5.81043017 C4.43753892,5.71007312 4.51519616,5.39347054 4.74338897,5.10554139 C4.96799759,4.81940434 5.25771883,4.66528459 5.3837625,4.76683636 C5.51159826,4.86838814 5.43334366,5.18379599 5.20694294,5.4723225" id="Fill-31"></path>
                    <path d="M2.67770643,5.29550295 C2.67770643,5.33911047 2.66336971,5.38212063 2.63768309,5.42214398 C2.6179701,5.44544115 2.6179701,5.44544115 2.6179701,5.44544115 C2.56958366,5.49621704 2.55464958,5.56431646 2.58451775,5.59657408 C2.61438592,5.62942907 2.68547216,5.61330026 2.7434164,5.56073228 C2.80076329,5.50876167 2.89395197,5.51533267 2.94950677,5.57566637 L3.30911952,5.96693937 C3.36467431,6.02727307 3.45069463,6.04041507 3.49967843,5.99501545 C3.54925959,5.94961584 3.54388332,5.86359551 3.48832853,5.80326181 L2.87423898,5.13660429 C2.81868419,5.07627059 2.74042959,5.0565576 2.70100361,5.09299676 C2.66098026,5.12943593 2.63529363,5.16945927 2.64305936,5.18140654 C2.64305936,5.18140654 2.64305936,5.18140654 2.65261717,5.20350899 C2.67113544,5.23516924 2.67890116,5.26563478 2.67770643,5.29550295" id="Fill-32"></path>
                    <path d="M1.85812389,4.6814134 C1.61559436,4.40841834 1.5188215,4.09778939 1.64307308,3.98966662 C1.76314311,3.88154385 2.06122744,4.01714533 2.30136751,4.29133512 C2.54150759,4.567317 2.6406699,4.87794595 2.51821041,4.98487399 C2.39395883,5.0923994 2.09945869,4.95918737 1.85812389,4.6814134" id="Fill-33"></path>
                    <path d="M2.84795499,4.34688991 C2.88319943,3.98130353 3.04150073,3.69994538 3.20517829,3.71547683 C3.36706376,3.73100828 3.47160235,4.03865041 3.43635791,4.40244471 C3.40171084,4.76683636 3.24042273,5.0499866 3.07853726,5.03505252 C2.91844387,5.01832634 2.81211319,4.71128157 2.84795499,4.34688991" id="Fill-34"></path>
                    <path d="M1.7290934,5.79728818 C1.36470175,5.75547274 1.08394096,5.59000309 1.10425132,5.42692289 C1.12217222,5.26444005 1.43100908,5.16886191 1.79480337,5.21007998 C2.15919503,5.25249278 2.43876109,5.41736507 2.42143755,5.57865318 C2.40172456,5.74053866 2.09288769,5.83910361 1.7290934,5.79728818" id="Fill-35"></path>
                    <path d="M11.7164116,4.2459355 C11.6913223,4.2100937 11.6757909,4.1676809 11.6757909,4.11989183 C11.6757909,4.08823157 11.6757909,4.08823157 11.6757909,4.08823157 C11.6877381,4.02013215 11.6614542,3.95621427 11.6178466,3.94665646 C11.5742391,3.93709864 11.5252553,3.99145871 11.5097239,4.06792122 C11.493595,4.14438373 11.4147431,4.19277016 11.3346964,4.17544663 L10.8126008,4.06433704 C10.7319568,4.04761087 10.6548969,4.08703685 10.6405602,4.15214945 C10.6268208,4.21726206 10.6805835,4.28416676 10.7612276,4.3014903 L11.6489095,4.49025712 C11.7289562,4.5069833 11.804224,4.47771249 11.8155739,4.42454715 C11.8275212,4.37138181 11.823937,4.32419011 11.8078082,4.32000856 C11.8078082,4.32000856 11.8078082,4.32000856 11.7892899,4.30925602 C11.7558376,4.29133512 11.7325404,4.2704274 11.7164116,4.2459355" id="Fill-36"></path>
                    <path d="M12.7390977,4.27281686 C13.0951262,4.35644773 13.3537846,4.55238291 13.3167481,4.71187893 C13.2785168,4.87197232 12.9601221,4.93051393 12.6040936,4.84807778 C12.2492597,4.76265482 11.9882119,4.56612227 12.0252484,4.40722361 C12.0610903,4.24832496 12.3824717,4.18679653 12.7390977,4.27281686" id="Fill-37"></path>
                    <path d="M12.1279949,5.11868339 C12.308996,5.43468861 12.341851,5.75786219 12.2008733,5.83970098 C12.0592982,5.92034503 11.7958609,5.73157821 11.6148598,5.41318353 C11.432664,5.09419149 11.3974195,4.77221263 11.5419815,4.69037385 C11.6811671,4.60853507 11.9434097,4.80088607 12.1279949,5.11868339" id="Fill-38"></path>
                    <path d="M12.2008733,3.28836202 C12.5222548,3.11154246 12.8460257,3.08525848 12.9224882,3.22922305 C13.0007428,3.37079817 12.8060024,3.63005387 12.4840235,3.8056787 C12.1632394,3.98130353 11.8400658,4.00937961 11.7600191,3.8660124 C11.6829592,3.72324256 11.8794918,3.46398685 12.2008733,3.28836202" id="Fill-39"></path>
                    <path d="M14.3143449,5.15870673 C14.2695426,5.16169355 14.2259351,5.14974628 14.184717,5.12405966 C14.158433,5.10733348 14.158433,5.10733348 14.158433,5.10733348 C14.1058651,5.06312859 14.0371683,5.05297342 14.0067027,5.08463368 C13.9756399,5.11629393 13.9965476,5.18678281 14.0521024,5.24054552 C14.1082545,5.29490558 14.1076572,5.3874969 14.0509076,5.44663588 L13.6823344,5.83074052 C13.6255849,5.8898795 13.6184166,5.97649719 13.666803,6.02249417 C13.7151894,6.06908851 13.8012097,6.05893333 13.8579593,5.99919699 L14.4851908,5.34448674 C14.5419403,5.2847504 14.5568744,5.20589844 14.5180458,5.16826455 C14.4792172,5.13063065 14.4368044,5.10733348 14.4236624,5.11629393 C14.4236624,5.11629393 14.4236624,5.11629393 14.4069362,5.12764384 C14.3734839,5.14675947 14.3418236,5.15810937 14.3143449,5.15870673" id="Fill-40"></path>
                    <path d="M14.8722823,4.30208766 C15.1309406,4.04342932 15.4367907,3.92694346 15.5514844,4.04223459 C15.6667756,4.15752573 15.549095,4.46218104 15.2892419,4.72083938 C15.0305836,4.978303 14.7295124,5.09419149 14.6124292,4.978303 C14.4977354,4.86301187 14.6148187,4.560746 14.8722823,4.30208766" id="Fill-41"></path>
                    <path d="M15.2707236,5.26802423 C15.63631,5.2799715 15.9290181,5.42214398 15.9224471,5.58462682 C15.9170708,5.74710965 15.6177918,5.87136123 15.2545948,5.85821924 C14.886619,5.84627197 14.5951057,5.70529422 14.5992872,5.54161665 C14.6040661,5.37913382 14.9069293,5.2554796 15.2707236,5.26802423" id="Fill-42"></path>
                    <path d="M13.7546154,4.24354605 C13.7719389,3.8773623 13.9194877,3.58764107 14.0831653,3.59600416 C14.2480375,3.60436724 14.363926,3.90723047 14.3442131,4.27341422 C14.3245001,4.63780587 14.1793408,4.92812447 14.0144685,4.91976139 C13.8513883,4.91080093 13.7354998,4.60734034 13.7546154,4.24354605" id="Fill-43"></path>
                    <path d="M1.57975256,7.11805859 C1.62216536,7.13120058 1.6574098,7.15748457 1.68488851,7.19930001 C1.70400414,7.22080509 1.70400414,7.22080509 1.70400414,7.22080509 C1.73506704,7.28293088 1.79360865,7.31996741 1.83482672,7.3020465 C1.87544743,7.28472297 1.88381052,7.21184464 1.85215026,7.1407584 C1.82049,7.06907479 1.8563318,6.98424919 1.93159958,6.95139421 L2.42084018,6.73694076 C2.49610797,6.70408577 2.53553395,6.6270259 2.50805524,6.56609483 C2.48057652,6.50456641 2.39694565,6.48126923 2.32167787,6.51472158 L1.49373223,6.87791851 C1.41846445,6.9107735 1.37485692,6.97887292 1.39636201,7.02964881 C1.41786709,7.07982733 1.44713789,7.11686386 1.46207198,7.11208495 C1.46207198,7.11208495 1.46207198,7.11208495 1.4811876,7.1096955 C1.51941886,7.10372187 1.55227384,7.10730605 1.57975256,7.11805859" id="Fill-45"></path>
                    <path d="M0.735080755,7.69331951 C0.397570451,7.83429727 0.0708126871,7.82533682 0.0110763501,7.67241179 C-0.0534388938,7.52426568 0.17057237,7.28770978 0.508680037,7.14852412 C0.847385068,7.006949 1.17235074,7.01650681 1.23268444,7.16704238 C1.29839441,7.31698059 1.07557788,7.55473121 0.735080755,7.69331951" id="Fill-46"></path>
                    <path d="M0.736872845,6.64912834 C0.405336174,6.49799541 0.190285361,6.25546588 0.256592695,6.10731976 C0.323497393,5.95738156 0.649657793,5.96096574 0.98238919,6.11209867 C1.31571795,6.26203688 1.53196349,6.50337168 1.46386407,6.65330989 C1.39755673,6.80384545 1.0719937,6.80026127 0.736872845,6.64912834" id="Fill-47"></path>
                    <path d="M1.7470143,8.17718384 C1.58811565,8.50812315 1.34498876,8.71839506 1.19445319,8.64850354 C1.04809916,8.57920939 1.05467016,8.25484108 1.21416618,7.92390177 C1.37007802,7.59176774 1.61798382,7.38269056 1.76553257,7.45138735 C1.91367868,7.52187623 1.90591296,7.84624454 1.7470143,8.17718384" id="Fill-48"></path>
                    <path d="M12.6901139,7.72975868 C12.6453116,7.73394022 12.6058856,7.75126376 12.5688491,7.78352138 C12.5485388,7.80383174 12.5485388,7.80383174 12.5485388,7.80383174 C12.5019444,7.85639971 12.4356371,7.87790479 12.3997953,7.85162081 C12.3645508,7.82533682 12.3735113,7.75245849 12.4201056,7.68973533 C12.4667,7.62760954 12.4511685,7.53561558 12.3854586,7.48663179 L11.9595385,7.16644502 C11.8938285,7.11746122 11.8729208,7.03323299 11.9129441,6.97947029 C11.9529675,6.92630495 12.0395852,6.92272077 12.1052951,6.97230192 L12.8292995,7.51649995 C12.8950095,7.56548375 12.9218909,7.64194626 12.8890359,7.68555379 C12.8567783,7.72916131 12.8191444,7.75843212 12.8065997,7.75126376 C12.8065997,7.75126376 12.8065997,7.75126376 12.7874841,7.74230331 C12.7522397,7.72975868 12.71819,7.72497977 12.6901139,7.72975868" id="Fill-49"></path>
                    <path d="M13.382458,8.48183916 C13.6811397,8.69688997 13.9983397,8.76080785 14.0939178,8.63058264 C14.1877038,8.49796797 14.0228316,8.21601246 13.725942,8.00275374 C13.4272603,7.78830029 13.1124498,7.72318768 13.0138848,7.85580235 C12.9183067,7.98901438 13.083179,8.26858044 13.382458,8.48183916" id="Fill-50"></path>
                    <path d="M13.6160271,7.4651267 C13.9768346,7.39284574 14.243856,7.20766309 14.211001,7.04816707 C14.1793408,6.88687896 13.8627382,6.81220854 13.5031254,6.88448951 C13.1423179,6.95677048 12.8770886,7.14314785 12.9087489,7.3038386 C12.9422012,7.46333461 13.2576091,7.53561558 13.6160271,7.4651267" id="Fill-51"></path>
                    <path d="M12.2851015,8.7225766 C12.3639535,9.08099462 12.5557071,9.34144505 12.7146058,9.30620061 C12.8752965,9.27334563 12.9422012,8.95435359 12.8633493,8.59593556 C12.7862894,8.23930963 12.5939384,7.97706711 12.433845,8.01290892 C12.2731542,8.04695863 12.2062495,8.36475594 12.2851015,8.7225766" id="Fill-52"></path>
                    <path d="M4.40826812,7.8826837 C4.45068092,7.88686524 4.4901069,7.90657824 4.52714343,7.93704377 C4.55223269,7.95675676 4.55223269,7.95675676 4.55223269,7.95675676 C4.59763231,8.00932474 4.66393964,8.03082982 4.69918408,8.00454583 C4.73383115,7.97826184 4.72427334,7.90538351 4.67708163,7.84325772 C4.62988993,7.78053456 4.64542137,7.68973533 4.71113135,7.64015417 L5.13884352,7.32056477 C5.20515085,7.27158097 5.22605857,7.18735274 5.18663259,7.13359003 C5.14660924,7.07982733 5.06058892,7.07564579 4.99487895,7.12522695 L4.266693,7.6706197 C4.20098303,7.7196035 4.17410168,7.79546865 4.20755402,7.83847881 C4.24040901,7.88208634 4.2780429,7.91075978 4.2911849,7.90299406 C4.2911849,7.90299406 4.2911849,7.90299406 4.30970316,7.89642306 C4.34673969,7.88328106 4.37660786,7.87790479 4.40826812,7.8826837" id="Fill-53"></path>
                    <path d="M3.71413188,8.63655627 C3.4202291,8.85220445 3.09944497,8.9149276 3.00207474,8.7829103 C2.90948342,8.65089299 3.07435571,8.36893748 3.37064794,8.1550814 C3.66694017,7.94361476 3.98652958,7.87790479 4.08389981,8.01111683 C4.17708849,8.14134204 4.01400829,8.42270019 3.71413188,8.63655627" id="Fill-54"></path>
                    <path d="M3.47996544,7.61805173 C3.12214478,7.54816021 2.85452599,7.36118548 2.88618625,7.2010921 C2.91844387,7.03980399 3.23564382,6.96692565 3.59406184,7.0380119 C3.95367459,7.1096955 4.21890393,7.2972676 4.18903576,7.45676362 C4.15618077,7.61625964 3.84196764,7.68973533 3.47996544,7.61805173" id="Fill-55"></path>
                    <path d="M4.81208575,8.87789108 C4.73323379,9.23451701 4.54148015,9.49675953 4.38198413,9.46151509 C4.22248811,9.42627065 4.15618077,9.1090707 4.23443538,8.75125004 C4.31089789,8.39283202 4.50384626,8.13118686 4.66274491,8.16583394 C4.82403302,8.19988365 4.89153508,8.51827833 4.81208575,8.87789108" id="Fill-56"></path>
                    <path d="M15.483385,6.90659195 C15.4684509,6.86417915 15.4672562,6.82116899 15.476814,6.77517201 C15.4845797,6.74590121 15.4845797,6.74590121 15.4845797,6.74590121 C15.5114611,6.6807886 15.5001112,6.61089709 15.4600878,6.59178146 C15.4200645,6.57206847 15.3597308,6.61328654 15.3256811,6.68317805 C15.2922287,6.75366693 15.2038189,6.78114565 15.1303432,6.74470648 L14.6524525,6.50934531 C14.5789769,6.47290615 14.4941513,6.49202178 14.4648805,6.55235548 C14.4350123,6.61209181 14.4708541,6.69034641 14.5443298,6.72678558 L15.3561466,7.12701904 C15.4296223,7.1634582 15.509669,7.15330303 15.5335635,7.10491659 C15.5580554,7.05653016 15.5682106,7.00993582 15.5568607,7.00217009 C15.5568607,7.00217009 15.5568607,7.00217009 15.5407319,6.98604128 C15.5150453,6.96095202 15.4923454,6.9352654 15.483385,6.90659195" id="Fill-57"></path>
                    <path d="M16.4684372,7.18376856 C16.7945976,7.35162766 16.9965064,7.60610446 16.9224334,7.75126376 C16.8459708,7.89522833 16.5221999,7.8761127 16.1966369,7.70586414 C15.8734633,7.53800504 15.669165,7.2841256 15.7456275,7.13777158 C15.8208953,6.99380701 16.1452636,7.01471472 16.4684372,7.18376856" id="Fill-58"></path>
                    <path d="M15.669165,7.85281553 C15.7671326,8.20585728 15.7205383,8.52783614 15.5640291,8.5708463 C15.4051304,8.61445383 15.1966506,8.36475594 15.1004751,8.01290892 C14.9989233,7.65986716 15.0467124,7.3396804 15.2038189,7.29368342 C15.3615229,7.25007589 15.568808,7.50037114 15.669165,7.85281553" id="Fill-59"></path>
                    <path d="M16.1864817,6.09656722 C16.5425103,6.00457327 16.8620997,6.0595307 16.9039151,6.21663726 C16.9445358,6.37314646 16.6906564,6.57684737 16.3376146,6.66824397 C15.9821834,6.76203002 15.662594,6.70647523 15.6201812,6.54936866 C15.5795605,6.39226209 15.8328426,6.18975591 16.1864817,6.09656722" id="Fill-60"></path>
                </g>
                <path d="M19.0128813,9.86485869 L19.0146734,9.87979278 C19.0146734,9.87979278 18.8904219,13.8176121 16.4537767,15.1843795 C16.3175778,15.2775682 15.7429143,15.5302529 15.592976,15.5660947 C15.2769708,15.6658544 14.9406552,15.7226039 14.5923924,15.7226039 C13.4932438,15.7226039 12.5201389,15.1790032 11.9221781,14.3498629 C11.9173992,14.3414998 11.9114256,14.3337341 11.9048546,14.3271631 C11.8899205,14.3044633 11.8755838,14.2835555 11.859455,14.259661 C11.6718829,13.988458 11.5261262,13.6879843 11.4299507,13.3701869 C11.3487093,13.0852446 11.3045044,12.7835761 11.3045044,12.4735445 C11.3045044,12.0565849 11.3809669,11.6581435 11.5231394,11.2925571 C11.7650716,10.5763185 12.2089126,10.1091803 12.6724665,9.8027329 C13.2142751,9.41325198 13.8588302,9.15758046 14.5750689,9.15758046 C14.7214229,9.15758046 15.7429143,9.14025692 15.7924954,9.06737859 C15.8862815,8.93715338 15.3546281,8.74659446 15.3546281,8.74659446 C13.5804589,8.21374634 12.5058022,8.5536461 11.3427357,9.2776505 C11.3427357,9.2776505 11.2925571,9.30393449 11.2256524,9.31886857 C11.1008035,9.2352377 11.1354506,9.03751043 11.1354506,9.03751043 C11.2961413,7.35175099 12.0972056,6.18868451 13.2740114,5.24007148 C13.357045,5.18033514 13.5028016,5.03577321 13.4520257,4.91570317 C13.4293259,4.85716156 13.1133207,4.71976799 12.4048477,5.20781386 C11.5117895,5.88582128 10.6408337,6.56621816 9.87023496,8.58530635 C9.87023496,8.58530635 9.87023496,8.59068262 9.86485869,8.59844835 C9.8630666,8.59068262 9.86067715,8.58530635 9.86067715,8.58530635 C9.08888367,6.56621816 8.21852524,5.88582128 7.32666173,5.20781386 C6.61878614,4.71976799 6.36430934,4.86910883 6.33444118,4.92585835 C6.26454966,5.05608356 6.37386716,5.18033514 6.45809539,5.24007148 C7.63131705,6.18868451 8.43477078,7.35175099 8.59546153,9.03751043 C8.59546153,9.03751043 8.63130333,9.2352377 8.50167548,9.31886857 C8.44014705,9.30393449 8.38937117,9.2776505 8.38937117,9.2776505 C7.22331787,8.5536461 6.14925853,8.21374634 4.3786735,8.74659446 C4.3786735,8.74659446 3.84582538,8.93715338 3.93483252,9.06737859 C3.98859522,9.14025692 4.94258452,9.11636239 5.091328,9.11636239 C5.80756668,9.11636239 6.51783173,9.41325198 7.05725085,9.8027329 C7.52438901,10.1091803 7.96464581,10.5763185 8.2077727,11.2925571 C8.34755573,11.6581435 8.42581033,12.0565849 8.42581033,12.4735445 C8.42581033,12.7847708 8.38339753,13.0852446 8.30155875,13.3713817 C8.20418852,13.6903737 8.05843186,13.988458 7.87265185,14.259661 C7.85652304,14.2835555 7.84099159,14.3044633 7.82605751,14.3271631 C7.82008388,14.3337341 7.81590233,14.3414998 7.80813661,14.3498629 C7.21316269,15.1790032 6.23826567,15.7226039 5.13732498,15.7226039 C4.78906214,15.7226039 4.45274656,15.6658544 4.13913079,15.5660947 C3.98859522,15.5302529 3.41572375,15.2775682 3.27833017,15.1843795 C0.842879715,13.8176121 0.715043954,9.87979278 0.715043954,9.87979278 L0.716836044,9.86485869 C0.716836044,5.36611515 3.96589541,1.62662046 8.24600396,0.86139798 C8.77108636,0.76761193 9.3134923,0.719225498 9.86485869,0.719225498 C14.9179554,0.719225498 19.0128813,4.81295667 19.0128813,9.86485869 Z M19.7034334,9.10620721 C19.3139525,4.01248976 15.0583358,4.51894867e-23 9.86485869,4.51894867e-23 C4.41690476,4.51894867e-23 1.19949929e-24,4.41690476 1.19949929e-24,9.86485869 C1.19949929e-24,15.3146047 4.41690476,19.7321068 9.86485869,19.7321068 C15.0583358,19.7321068 19.3139525,15.7190197 19.7034334,10.6247049 C19.7219517,10.3732149 19.7321068,10.1205302 19.7321068,9.86485869 C19.7321068,9.60918717 19.7219517,9.35650246 19.7034334,9.10620721 L19.7034334,9.10620721 Z" id="Fill-44"></path>
            </g>
        </g>
    </g>
</svg>